<svg width="400" height="400" viewBox="0 0 400 400" fill="none" xmlns="http://www.w3.org/2000/svg">
  <!-- Background -->
  <circle cx="200" cy="200" r="170" fill="#FEF3C7" opacity="0.5" />
  
  <!-- Empty shopping bag -->
  <path d="M150 120H250L270 300H130L150 120Z" fill="white" stroke="#6B7280" stroke-width="4" />
  <path d="M150 120C150 120 170 90 200 90C230 90 250 120 250 120" stroke="#6B7280" stroke-width="4" />
  
  <!-- Dotted line in bag -->
  <path d="M160 150H240" stroke="#9CA3AF" stroke-width="2" stroke-dasharray="5 5" />
  
  <!-- Food icons floating out of bag -->
  <!-- Burger -->
  <g transform="translate(180, 180)">
    <path d="M-30 0C-30 0 -50 0 -50 10C-50 20 -30 20 -30 20H-10C-10 20 10 20 10 10C10 0 -10 0 -10 0H-30Z" fill="#92400E" />
    <path d="M-30 -10H-10C-10 -10 10 -10 10 -20C10 -30 -10 -30 -10 -30H-30C-30 -30 -50 -30 -50 -20C-50 -10 -30 -10 -30 -10Z" fill="#FCD34D" />
    <path d="M-30 -30H-10C-10 -30 0 -35 0 -40C0 -45 -10 -50 -10 -50H-30C-30 -50 -40 -45 -40 -40C-40 -35 -30 -30 -30 -30Z" fill="#15803D" />
    <rect x="-40" y="-50" width="40" height="10" fill="#FCD34D" />
  </g>
  
  <!-- Pizza -->
  <g transform="translate(240, 160)">
    <path d="M0 -30L30 10L-30 10L0 -30Z" fill="#FBBF24" />
    <path d="M0 -30L30 10L-30 10L0 -30Z" stroke="#D97706" stroke-width="2" />
    <circle cx="-5" cy="-5" r="5" fill="#B91C1C" />
    <circle cx="10" cy="-10" r="5" fill="#B91C1C" />
    <circle cx="0" cy="0" r="5" fill="#B91C1C" />
  </g>
  
  <!-- Drink -->
  <g transform="translate(160, 160)">
    <path d="M10 40L20 -20H-20L-10 40H10Z" fill="#831843" />
    <path d="M10 40L20 -20H-20L-10 40H10Z" stroke="#831843" stroke-width="2" />
    <path d="M-20 -20H20" stroke="#831843" stroke-width="2" />
    <path d="M20 -20C20 -20 30 -30 20 -40C10 -50 -10 -50 -20 -40C-30 -30 -20 -20 -20 -20" fill="#E879F9" />
    <path d="M20 -20C20 -20 30 -30 20 -40C10 -50 -10 -50 -20 -40C-30 -30 -20 -20 -20 -20" stroke="#831843" stroke-width="2" />
    <path d="M0 -40V-60" stroke="#831843" stroke-width="2" />
    <path d="M-10 -60H10" stroke="#831843" stroke-width="2" />
  </g>
  
  <!-- Fries -->
  <g transform="translate(220, 220)">
    <rect x="-20" y="-40" width="40" height="50" rx="5" fill="#FCD34D" />
    <rect x="-20" y="-40" width="40" height="50" rx="5" stroke="#D97706" stroke-width="2" />
    <rect x="-15" y="-60" width="5" height="30" rx="2" fill="#FCD34D" />
    <rect x="-5" y="-65" width="5" height="35" rx="2" fill="#FCD34D" />
    <rect x="5" y="-60" width="5" height="30" rx="2" fill="#FCD34D" />
    <rect x="15" y="-55" width="5" height="25" rx="2" fill="#FCD34D" />
  </g>
  
  <!-- Question marks -->
  <text x="120" y="100" font-family="Arial" font-size="30" font-weight="bold" fill="#F97316">?</text>
  <text x="260" y="100" font-family="Arial" font-size="30" font-weight="bold" fill="#F97316">?</text>
  
  <!-- Plate at bottom -->
  <ellipse cx="200" cy="320" rx="100" ry="20" fill="#F3F4F6" stroke="#E5E7EB" stroke-width="2" />
  <ellipse cx="200" cy="320" rx="80" ry="15" fill="#FEFEFE" stroke="#E5E7EB" stroke-width="1" />
  
  <!-- Sad face on plate -->
  <circle cx="180" cy="315" r="5" fill="#6B7280" />
  <circle cx="220" cy="315" r="5" fill="#6B7280" />
  <path d="M180 330C180 330 190 325 200 325C210 325 220 330 220 330" stroke="#6B7280" stroke-width="3" stroke-linecap="round" />
</svg>