<svg width="339" height="133" viewBox="0 0 339 133" fill="none" xmlns="http://www.w3.org/2000/svg">
<path d="M242.983 10.5481C201.625 6.67505 161.097 2.98438 119.623 2.98438C104.611 2.98438 91.0454 3.10183 76.8819 8.62715C63.8252 13.7207 51.3011 20.2259 38.5831 26.0957C20.3061 34.5313 10.7201 50.2612 3.94613 68.7767C1.09279 76.5758 4.41987 87.1765 8.08816 93.9891C23.3295 122.294 52.6685 127.444 82.2846 129.587C120.289 132.336 156.781 121.271 193.639 113.499C211.33 109.768 229.011 106.524 247.066 105.275C254.395 104.768 261.85 105.114 269.156 104.434C282.152 103.225 295.034 92.232 306.375 86.7855C313.125 83.5438 327.493 79.6797 330.747 72.0183C336.346 58.8325 340.312 40.1967 328.225 29.1572C318.523 20.2957 302.552 18.3812 290.167 17.1513C275.516 15.6964 261.347 16.5232 247.306 20.9932C215.339 31.1693 182.948 35.7879 149.458 29.7575C149.292 29.7277 129.354 26.8164 133.25 22.4339C134.485 21.0445 135.253 20.2729 137.092 20.2729" stroke="#FFE450" stroke-width="4" stroke-linecap="round"/>
</svg>
