<svg width="97" height="28" viewBox="0 0 97 28" fill="none" xmlns="http://www.w3.org/2000/svg">
<mask id="path-1-inside-1_915_4008" fill="white">
<path fill-rule="evenodd" clip-rule="evenodd" d="M20.4621 4.18659L10.466 3.90821L10.3825 6.90705C9.27837 6.8763 8.35836 7.74646 8.32761 8.8506C8.29686 9.95474 9.16702 10.8748 10.2712 10.9055L10.1876 13.9043L13.1865 13.9879C13.1557 15.092 14.0259 16.012 15.13 16.0428C16.2342 16.0735 17.1542 15.2033 17.1849 14.0992L20.1838 14.1827L20.4621 4.18659Z"/>
</mask>
<path fill-rule="evenodd" clip-rule="evenodd" d="M20.4621 4.18659L10.466 3.90821L10.3825 6.90705C9.27837 6.8763 8.35836 7.74646 8.32761 8.8506C8.29686 9.95474 9.16702 10.8748 10.2712 10.9055L10.1876 13.9043L13.1865 13.9879C13.1557 15.092 14.0259 16.012 15.13 16.0428C16.2342 16.0735 17.1542 15.2033 17.1849 14.0992L20.1838 14.1827L20.4621 4.18659Z" fill="#444CE7"/>
<path d="M10.466 3.90821L10.4716 3.70829L10.2717 3.70272L10.2661 3.90265L10.466 3.90821ZM20.4621 4.18659L20.6621 4.19216L20.6676 3.99223L20.4677 3.98667L20.4621 4.18659ZM10.3825 6.90705L10.3769 7.10697L10.5769 7.11254L10.5824 6.91262L10.3825 6.90705ZM10.2712 10.9055L10.4711 10.9111L10.4766 10.7111L10.2767 10.7056L10.2712 10.9055ZM10.1876 13.9043L9.98772 13.8988L9.98216 14.0987L10.1821 14.1043L10.1876 13.9043ZM13.1865 13.9879L13.3864 13.9934L13.392 13.7935L13.1921 13.7879L13.1865 13.9879ZM17.1849 14.0992L17.1905 13.8993L16.9906 13.8937L16.985 14.0936L17.1849 14.0992ZM20.1838 14.1827L20.1782 14.3826L20.3781 14.3882L20.3837 14.1883L20.1838 14.1827ZM10.4605 4.10814L20.4566 4.38651L20.4677 3.98667L10.4716 3.70829L10.4605 4.10814ZM10.5824 6.91262L10.6659 3.91378L10.2661 3.90265L10.1826 6.90148L10.5824 6.91262ZM10.3881 6.70713C9.17352 6.67331 8.16151 7.63048 8.12769 8.84503L8.52753 8.85617C8.55521 7.86244 9.38321 7.0793 10.3769 7.10697L10.3881 6.70713ZM8.12769 8.84503C8.09386 10.0596 9.05104 11.0716 10.2656 11.1054L10.2767 10.7056C9.283 10.6779 8.49986 9.8499 8.52753 8.85617L8.12769 8.84503ZM10.3876 13.9099L10.4711 10.9111L10.0712 10.8999L9.98772 13.8988L10.3876 13.9099ZM13.1921 13.7879L10.1932 13.7044L10.1821 14.1043L13.1809 14.1878L13.1921 13.7879ZM12.9866 13.9823C12.9527 15.1968 13.9099 16.2089 15.1245 16.2427L15.1356 15.8428C14.1419 15.8152 13.3587 14.9871 13.3864 13.9934L12.9866 13.9823ZM15.1245 16.2427C16.339 16.2765 17.351 15.3193 17.3849 14.1048L16.985 14.0936C16.9573 15.0874 16.1293 15.8705 15.1356 15.8428L15.1245 16.2427ZM20.1893 13.9828L17.1905 13.8993L17.1794 14.2991L20.1782 14.3826L20.1893 13.9828ZM20.2622 4.18102L19.9838 14.1771L20.3837 14.1883L20.6621 4.19216L20.2622 4.18102Z" fill="white" mask="url(#path-1-inside-1_915_4008)"/>
<mask id="path-3-inside-2_915_4008" fill="white">
<path fill-rule="evenodd" clip-rule="evenodd" d="M3.3775 13.8321L0.379662 13.7183L0.000142738 23.7111L9.99294 24.0906L10.1068 21.0928C11.2106 21.1347 12.1393 20.2739 12.1813 19.1701C12.2232 18.0663 11.3624 17.1376 10.2586 17.0956L10.3725 14.0978L7.37462 13.9839C7.41654 12.8802 6.55574 11.9514 5.45196 11.9095C4.34819 11.8676 3.41942 12.7284 3.3775 13.8321Z"/>
</mask>
<path fill-rule="evenodd" clip-rule="evenodd" d="M3.3775 13.8321L0.379662 13.7183L0.000142738 23.7111L9.99294 24.0906L10.1068 21.0928C11.2106 21.1347 12.1393 20.2739 12.1813 19.1701C12.2232 18.0663 11.3624 17.1376 10.2586 17.0956L10.3725 14.0978L7.37462 13.9839C7.41654 12.8802 6.55574 11.9514 5.45196 11.9095C4.34819 11.8676 3.41942 12.7284 3.3775 13.8321Z" fill="#444CE7"/>
<path d="M0.379662 13.7183L0.387253 13.5184L0.187397 13.5108L0.179807 13.7107L0.379662 13.7183ZM3.3775 13.8321L3.36991 14.032L3.56977 14.0396L3.57736 13.8397L3.3775 13.8321ZM0.000142738 23.7111L-0.199713 23.7035L-0.207304 23.9033L-0.00744765 23.9109L0.000142738 23.7111ZM9.99294 24.0906L9.98535 24.2905L10.1852 24.298L10.1928 24.0982L9.99294 24.0906ZM10.1068 21.0928L10.1144 20.8929L9.91453 20.8853L9.90694 21.0852L10.1068 21.0928ZM10.2586 17.0956L10.0587 17.0881L10.0512 17.2879L10.251 17.2955L10.2586 17.0956ZM10.3725 14.0978L10.5723 14.1054L10.5799 13.9055L10.38 13.8979L10.3725 14.0978ZM7.37462 13.9839L7.17476 13.9764L7.16717 14.1762L7.36703 14.1838L7.37462 13.9839ZM0.372072 13.9181L3.36991 14.032L3.38509 13.6323L0.387253 13.5184L0.372072 13.9181ZM0.199999 23.7187L0.579518 13.7259L0.179807 13.7107L-0.199713 23.7035L0.199999 23.7187ZM10.0005 23.8907L0.00773313 23.5112L-0.00744765 23.9109L9.98535 24.2905L10.0005 23.8907ZM9.90694 21.0852L9.79308 24.083L10.1928 24.0982L10.3066 21.1004L9.90694 21.0852ZM10.0992 21.2926C11.3134 21.3387 12.335 20.3918 12.3811 19.1777L11.9814 19.1625C11.9437 20.1559 11.1078 20.9306 10.1144 20.8929L10.0992 21.2926ZM12.3811 19.1777C12.4272 17.9635 11.4803 16.9419 10.2662 16.8958L10.251 17.2955C11.2444 17.3332 12.0191 18.1691 11.9814 19.1625L12.3811 19.1777ZM10.1726 14.0902L10.0587 17.0881L10.4585 17.1032L10.5723 14.1054L10.1726 14.0902ZM7.36703 14.1838L10.3649 14.2977L10.38 13.8979L7.38221 13.7841L7.36703 14.1838ZM7.57448 13.9915C7.62059 12.7774 6.67371 11.7557 5.45955 11.7096L5.44437 12.1093C6.43777 12.1471 7.21249 12.983 7.17476 13.9764L7.57448 13.9915ZM5.45955 11.7096C4.2454 11.6635 3.22376 12.6104 3.17765 13.8246L3.57736 13.8397C3.61509 12.8463 4.45098 12.0716 5.44437 12.1093L5.45955 11.7096Z" fill="white" mask="url(#path-3-inside-2_915_4008)"/>
<mask id="path-5-inside-3_915_4008" fill="white">
<path fill-rule="evenodd" clip-rule="evenodd" d="M0.335938 3.8335L10.3335 4.05599L10.2667 7.05524C9.16242 7.03067 8.24729 7.90595 8.22271 9.01025C8.19814 10.1145 9.07342 11.0297 10.1777 11.0543L10.111 14.0535L7.11171 13.9868C7.13629 12.8825 6.261 11.9673 5.15671 11.9428C4.05241 11.9182 3.13728 12.7935 3.1127 13.8978L0.113447 13.831L0.335938 3.8335Z"/>
</mask>
<path fill-rule="evenodd" clip-rule="evenodd" d="M0.335938 3.8335L10.3335 4.05599L10.2667 7.05524C9.16242 7.03067 8.24729 7.90595 8.22271 9.01025C8.19814 10.1145 9.07342 11.0297 10.1777 11.0543L10.111 14.0535L7.11171 13.9868C7.13629 12.8825 6.261 11.9673 5.15671 11.9428C4.05241 11.9182 3.13728 12.7935 3.1127 13.8978L0.113447 13.831L0.335938 3.8335Z" fill="#444CE7"/>
<path d="M10.3335 4.05599L10.5334 4.06044L10.5379 3.86049L10.3379 3.85604L10.3335 4.05599ZM0.335938 3.8335L0.340387 3.63355L0.140437 3.6291L0.135987 3.82905L0.335938 3.8335ZM10.2667 7.05524L10.2623 7.25519L10.4622 7.25964L10.4667 7.05969L10.2667 7.05524ZM10.1777 11.0543L10.3777 11.0587L10.3821 10.8588L10.1822 10.8543L10.1777 11.0543ZM10.111 14.0535L10.1065 14.2535L10.3065 14.2579L10.3109 14.058L10.111 14.0535ZM7.11171 13.9868L6.91176 13.9823L6.90731 14.1823L7.10726 14.1867L7.11171 13.9868ZM3.1127 13.8978L3.10826 14.0977L3.30821 14.1022L3.31266 13.9022L3.1127 13.8978ZM0.113447 13.831L-0.0865033 13.8266L-0.0909531 14.0265L0.108997 14.031L0.113447 13.831ZM10.3379 3.85604L0.340387 3.63355L0.331488 4.03345L10.329 4.25594L10.3379 3.85604ZM10.4667 7.05969L10.5334 4.06044L10.1335 4.05154L10.0668 7.05079L10.4667 7.05969ZM8.42266 9.0147C8.44478 8.02083 9.2684 7.23308 10.2623 7.25519L10.2712 6.85529C9.05644 6.82826 8.04979 7.79108 8.02276 9.0058L8.42266 9.0147ZM10.1822 10.8543C9.1883 10.8322 8.40054 10.0086 8.42266 9.0147L8.02276 9.0058C7.99573 10.2205 8.95854 11.2272 10.1733 11.2542L10.1822 10.8543ZM10.3109 14.058L10.3777 11.0587L9.97777 11.0498L9.91102 14.0491L10.3109 14.058ZM7.10726 14.1867L10.1065 14.2535L10.1154 13.8536L7.11616 13.7868L7.10726 14.1867ZM5.15226 12.1427C6.14612 12.1648 6.93388 12.9884 6.91176 13.9823L7.31166 13.9912C7.3387 12.7765 6.37588 11.7698 5.16116 11.7428L5.15226 12.1427ZM3.31266 13.9022C3.33477 12.9084 4.15839 12.1206 5.15226 12.1427L5.16116 11.7428C3.94643 11.7158 2.93979 12.6786 2.91275 13.8933L3.31266 13.9022ZM0.108997 14.031L3.10826 14.0977L3.11715 13.6978L0.117897 13.6311L0.108997 14.031ZM0.135987 3.82905L-0.0865033 13.8266L0.313398 13.8355L0.535888 3.83795L0.135987 3.82905Z" fill="white" mask="url(#path-5-inside-3_915_4008)"/>
<mask id="path-7-inside-4_915_4008" fill="white">
<path fill-rule="evenodd" clip-rule="evenodd" d="M15.1449 15.9444C16.2491 15.9155 17.1208 14.9969 17.0918 13.8927L20.0908 13.8141L20.3529 23.8107L10.3563 24.0727L10.2777 21.0738C11.3819 21.0448 12.2535 20.1262 12.2246 19.022C12.1956 17.9178 11.2771 17.0462 10.1729 17.0751L10.0942 14.0762L13.0932 13.9975C13.1222 15.1017 14.0407 15.9734 15.1449 15.9444Z"/>
</mask>
<path fill-rule="evenodd" clip-rule="evenodd" d="M15.1449 15.9444C16.2491 15.9155 17.1208 14.9969 17.0918 13.8927L20.0908 13.8141L20.3529 23.8107L10.3563 24.0727L10.2777 21.0738C11.3819 21.0448 12.2535 20.1262 12.2246 19.022C12.1956 17.9178 11.2771 17.0462 10.1729 17.0751L10.0942 14.0762L13.0932 13.9975C13.1222 15.1017 14.0407 15.9734 15.1449 15.9444Z" fill="#444CE7"/>
<path d="M17.0918 13.8927L17.0866 13.6928L16.8867 13.698L16.8919 13.898L17.0918 13.8927ZM15.1449 15.9444L15.1502 16.1444L15.1449 15.9444ZM20.0908 13.8141L20.2907 13.8089L20.2855 13.6089L20.0856 13.6142L20.0908 13.8141ZM20.3529 23.8107L20.3581 24.0106L20.5581 24.0053L20.5528 23.8054L20.3529 23.8107ZM10.3563 24.0727L10.1564 24.078L10.1616 24.2779L10.3616 24.2727L10.3563 24.0727ZM10.2777 21.0738L10.2725 20.8738L10.0725 20.8791L10.0778 21.079L10.2777 21.0738ZM12.2246 19.022L12.4245 19.0168L12.2246 19.022ZM10.1729 17.0751L9.97293 17.0804L9.97817 17.2803L10.1781 17.2751L10.1729 17.0751ZM10.0942 14.0762L10.089 13.8762L9.88907 13.8815L9.89431 14.0814L10.0942 14.0762ZM13.0932 13.9975L13.2931 13.9923L13.2879 13.7924L13.088 13.7976L13.0932 13.9975ZM16.8919 13.898C16.918 14.8917 16.1335 15.7185 15.1397 15.7445L15.1502 16.1444C16.3648 16.1125 17.3236 15.1021 17.2918 13.8875L16.8919 13.898ZM20.0856 13.6142L17.0866 13.6928L17.0971 14.0926L20.096 14.014L20.0856 13.6142ZM20.5528 23.8054L20.2907 13.8089L19.8909 13.8193L20.153 23.8159L20.5528 23.8054ZM10.3616 24.2727L20.3581 24.0106L20.3476 23.6107L10.3511 23.8728L10.3616 24.2727ZM10.0778 21.079L10.1564 24.078L10.5562 24.0675L10.4776 21.0685L10.0778 21.079ZM12.0247 19.0273C12.0507 20.0211 11.2662 20.8478 10.2725 20.8738L10.2829 21.2737C11.4975 21.2419 12.4564 20.2314 12.4245 19.0168L12.0247 19.0273ZM10.1781 17.2751C11.1719 17.249 11.9986 18.0335 12.0247 19.0273L12.4245 19.0168C12.3927 17.8022 11.3822 16.8434 10.1676 16.8752L10.1781 17.2751ZM9.89431 14.0814L9.97293 17.0804L10.3728 17.0699L10.2942 14.0709L9.89431 14.0814ZM13.088 13.7976L10.089 13.8762L10.0995 14.2761L13.0984 14.1975L13.088 13.7976ZM15.1397 15.7445C14.1459 15.7706 13.3192 14.9861 13.2931 13.9923L12.8933 14.0028C12.9251 15.2174 13.9356 16.1762 15.1502 16.1444L15.1397 15.7445Z" fill="white" mask="url(#path-7-inside-4_915_4008)"/>
<path d="M37.4554 8.34C37.8154 8.35333 38.2954 8.36667 38.8954 8.38C39.4954 8.39333 40.0954 8.4 40.6954 8.4C41.3488 8.4 41.9754 8.39333 42.5754 8.38C43.1888 8.36667 43.6221 8.36 43.8754 8.36C45.6088 8.36 46.9021 8.65333 47.7554 9.24C48.6221 9.82667 49.0554 10.58 49.0554 11.5C49.0554 11.9667 48.9021 12.4467 48.5954 12.94C48.2888 13.42 47.8154 13.8533 47.1754 14.24C46.5488 14.6133 45.7421 14.8733 44.7554 15.02V15.06C46.0621 15.14 47.1021 15.3667 47.8755 15.74C48.6621 16.1 49.2288 16.5333 49.5754 17.04C49.9221 17.5467 50.0955 18.0733 50.0955 18.62C50.0955 19.4867 49.8621 20.2067 49.3954 20.78C48.9421 21.3533 48.2821 21.7867 47.4155 22.08C46.5621 22.36 45.5354 22.5 44.3354 22.5C44.0154 22.5 43.5488 22.4933 42.9354 22.48C42.3221 22.4533 41.5888 22.44 40.7354 22.44C40.1088 22.44 39.4954 22.4467 38.8954 22.46C38.2954 22.46 37.8154 22.4733 37.4554 22.5V22.1C37.8688 22.0733 38.1754 22.02 38.3754 21.94C38.5888 21.86 38.7288 21.7 38.7954 21.46C38.8754 21.22 38.9154 20.86 38.9154 20.38V10.46C38.9154 9.96667 38.8754 9.60667 38.7954 9.38C38.7288 9.14 38.5888 8.98 38.3754 8.9C38.1754 8.80667 37.8688 8.75333 37.4554 8.74V8.34ZM43.6954 8.74C43.2154 8.74 42.9021 8.85333 42.7554 9.08C42.6088 9.30667 42.5354 9.76667 42.5354 10.46V20.38C42.5354 20.8467 42.5688 21.2 42.6354 21.44C42.7154 21.68 42.8488 21.84 43.0354 21.92C43.2221 22 43.5021 22.04 43.8754 22.04C44.7288 22.04 45.3488 21.74 45.7354 21.14C46.1354 20.5267 46.3354 19.66 46.3354 18.54C46.3354 17.5133 46.0821 16.72 45.5754 16.16C45.0821 15.6 44.2554 15.32 43.0954 15.32H41.5154C41.5154 15.32 41.5154 15.2667 41.5154 15.16C41.5154 15.04 41.5154 14.98 41.5154 14.98H43.2354C43.8088 14.98 44.2488 14.8333 44.5554 14.54C44.8621 14.2333 45.0754 13.8333 45.1954 13.34C45.3154 12.8333 45.3754 12.2933 45.3754 11.72C45.3754 10.7333 45.2421 9.99333 44.9754 9.5C44.7221 8.99333 44.2954 8.74 43.6954 8.74ZM61.105 11.92V20.32C61.105 20.92 61.1916 21.3667 61.365 21.66C61.5516 21.94 61.865 22.08 62.305 22.08V22.5C61.8916 22.46 61.4783 22.44 61.065 22.44C60.4516 22.44 59.8783 22.46 59.345 22.5C58.825 22.54 58.3316 22.6133 57.865 22.72V21.1C57.545 21.7 57.105 22.1333 56.545 22.4C55.9983 22.6533 55.3716 22.78 54.665 22.78C54.0783 22.78 53.605 22.7067 53.245 22.56C52.8983 22.4133 52.6316 22.22 52.445 21.98C52.2316 21.74 52.0783 21.42 51.985 21.02C51.8916 20.6067 51.845 20.0667 51.845 19.4V14.32C51.845 13.72 51.7583 13.28 51.585 13C51.4116 12.7067 51.0983 12.56 50.645 12.56V12.14C51.0716 12.18 51.485 12.2 51.885 12.2C52.4983 12.2 53.0716 12.18 53.605 12.14C54.1383 12.0867 54.6316 12.0133 55.085 11.92V20.36C55.085 20.6667 55.1183 20.9267 55.185 21.14C55.2516 21.3533 55.365 21.52 55.525 21.64C55.685 21.76 55.8983 21.82 56.165 21.82C56.4716 21.82 56.7516 21.74 57.005 21.58C57.2583 21.42 57.465 21.2 57.625 20.92C57.785 20.6267 57.865 20.3 57.865 19.94V14.32C57.865 13.72 57.7783 13.28 57.605 13C57.4316 12.7067 57.1183 12.56 56.665 12.56V12.14C57.0916 12.18 57.505 12.2 57.905 12.2C58.5183 12.2 59.0916 12.18 59.625 12.14C60.1583 12.0867 60.6516 12.0133 61.105 11.92ZM65.6301 6.92C66.2568 6.92 66.7435 7.06 67.0901 7.34C67.4501 7.62 67.6301 8.02667 67.6301 8.56C67.6301 9.09333 67.4501 9.5 67.0901 9.78C66.7435 10.06 66.2568 10.2 65.6301 10.2C65.0035 10.2 64.5101 10.06 64.1501 9.78C63.8035 9.5 63.6301 9.09333 63.6301 8.56C63.6301 8.02667 63.8035 7.62 64.1501 7.34C64.5101 7.06 65.0035 6.92 65.6301 6.92ZM67.3901 11.92V20.64C67.3901 21.2 67.4768 21.58 67.6501 21.78C67.8368 21.98 68.1501 22.08 68.5901 22.08V22.5C68.3235 22.4867 67.9301 22.4733 67.4101 22.46C66.8901 22.4333 66.3635 22.42 65.8301 22.42C65.2968 22.42 64.7501 22.4333 64.1901 22.46C63.6435 22.4733 63.2301 22.4867 62.9501 22.5V22.08C63.3901 22.08 63.6968 21.98 63.8701 21.78C64.0568 21.58 64.1501 21.2 64.1501 20.64V14.32C64.1501 13.72 64.0635 13.28 63.8901 13C63.7168 12.7067 63.4035 12.56 62.9501 12.56V12.14C63.3768 12.18 63.7901 12.2 64.1901 12.2C64.7901 12.2 65.3568 12.18 65.8901 12.14C66.4368 12.0867 66.9368 12.0133 67.3901 11.92ZM73.575 6.86V20.64C73.575 21.2 73.6616 21.58 73.835 21.78C74.0216 21.98 74.335 22.08 74.775 22.08V22.5C74.5216 22.4867 74.135 22.4733 73.615 22.46C73.095 22.4333 72.5616 22.42 72.015 22.42C71.4816 22.42 70.935 22.4333 70.375 22.46C69.8283 22.4733 69.415 22.4867 69.135 22.5V22.08C69.575 22.08 69.8816 21.98 70.055 21.78C70.2416 21.58 70.335 21.2 70.335 20.64V9.24C70.335 8.65333 70.2483 8.22 70.075 7.94C69.915 7.64667 69.6016 7.5 69.135 7.5V7.08C69.5616 7.12 69.975 7.14 70.375 7.14C70.9883 7.14 71.5616 7.12 72.095 7.08C72.6283 7.02667 73.1216 6.95333 73.575 6.86ZM85.2859 6.86V20.3C85.2859 20.9 85.3726 21.3467 85.5459 21.64C85.7326 21.92 86.0459 22.06 86.4859 22.06V22.48C86.0726 22.44 85.6593 22.42 85.2459 22.42C84.6459 22.42 84.0793 22.44 83.5459 22.48C83.0126 22.52 82.5126 22.5933 82.0459 22.7V9.26C82.0459 8.66 81.9593 8.22 81.7859 7.94C81.6259 7.64667 81.3126 7.5 80.8459 7.5V7.08C81.2726 7.12 81.6859 7.14 82.0859 7.14C82.6993 7.14 83.2726 7.12 83.8059 7.08C84.3393 7.02667 84.8326 6.95333 85.2859 6.86ZM79.9059 11.86C80.4926 11.86 80.9993 11.9467 81.4259 12.12C81.8526 12.28 82.2059 12.5533 82.4859 12.94L82.2459 13.14C82.0726 12.9133 81.8593 12.7467 81.6059 12.64C81.3659 12.5333 81.1126 12.48 80.8459 12.48C80.2059 12.48 79.7059 12.88 79.3459 13.68C78.9993 14.4667 78.8259 15.68 78.8259 17.32C78.8259 18.4667 78.8926 19.3733 79.0259 20.04C79.1726 20.6933 79.3659 21.1533 79.6059 21.42C79.8593 21.6867 80.1393 21.82 80.4459 21.82C80.8593 21.82 81.2259 21.6667 81.5459 21.36C81.8793 21.04 82.0526 20.62 82.0659 20.1L82.1259 20.94C81.8859 21.5533 81.5526 22.0133 81.1259 22.32C80.7126 22.6267 80.1793 22.78 79.5259 22.78C78.7526 22.78 78.0526 22.5867 77.4259 22.2C76.8126 21.8133 76.3259 21.22 75.9659 20.42C75.6193 19.6067 75.4459 18.5533 75.4459 17.26C75.4459 16.0467 75.6326 15.0467 76.0059 14.26C76.3926 13.46 76.9193 12.86 77.5859 12.46C78.2659 12.06 79.0393 11.86 79.9059 11.86ZM94.1567 11.86C94.61 11.86 94.97 11.96 95.2367 12.16C95.5034 12.3467 95.6967 12.5933 95.8167 12.9C95.9367 13.1933 95.9967 13.4867 95.9967 13.78C95.9967 14.3267 95.8367 14.7667 95.5167 15.1C95.21 15.4333 94.8034 15.6 94.2967 15.6C93.7634 15.6 93.3567 15.48 93.0767 15.24C92.7967 14.9867 92.6567 14.6533 92.6567 14.24C92.6567 13.8267 92.7434 13.4867 92.9167 13.22C93.1034 12.9533 93.33 12.7267 93.5967 12.54C93.3967 12.5133 93.2034 12.54 93.0167 12.62C92.8034 12.6733 92.6034 12.7733 92.4167 12.92C92.23 13.0667 92.07 13.24 91.9367 13.44C91.8034 13.64 91.6967 13.86 91.6167 14.1C91.55 14.3267 91.5167 14.56 91.5167 14.8V20.44C91.5167 21.08 91.6567 21.5133 91.9367 21.74C92.23 21.9667 92.69 22.08 93.3167 22.08V22.5C93.01 22.4867 92.5567 22.4733 91.9567 22.46C91.3567 22.4333 90.7367 22.42 90.0967 22.42C89.5234 22.42 88.9434 22.4333 88.3567 22.46C87.7834 22.4733 87.3567 22.4867 87.0767 22.5V22.08C87.5167 22.08 87.8234 21.98 87.9967 21.78C88.1834 21.58 88.2767 21.2 88.2767 20.64V14.32C88.2767 13.72 88.19 13.28 88.0167 13C87.8434 12.7067 87.53 12.56 87.0767 12.56V12.14C87.5034 12.18 87.9167 12.2 88.3167 12.2C88.9167 12.2 89.4834 12.18 90.0167 12.14C90.5634 12.0867 91.0634 12.0133 91.5167 11.92V13.56C91.6767 13.2133 91.8834 12.9133 92.1367 12.66C92.4034 12.4067 92.7034 12.2133 93.0367 12.08C93.3834 11.9333 93.7567 11.86 94.1567 11.86Z" fill="white"/>
</svg>
